<svg height="69.908488795765" width="369.9130434782609" style="width: 369.913px; height: 69.9085px; position: absolute; top: 50%; left: 50%; transform: translate(-50%, -50%) scale(1); z-index: 0; cursor: pointer; overflow: visible;" id="SVG 0" xmlns="http://www.w3.org/2000/svg" xmlns:xlink="http://www.w3.org/1999/xlink"><defs id="SvgjsDefs1001"></defs><g id="SvgjsG1007" featurekey="rDwwlG-0" transform="matrix(0.27364839755179554,0,0,0.27364839755179554,-33.244754056331416,-35.810092955942174)" fill="#5f6fff"><path xmlns="http://www.w3.org/2000/svg" d="M227.96 204v61.04q0 .6.59.6h13.4a.63.62-90 0 1 .62.63v10.76a.59.58-90 0 1-.58.59h-50.01a1.71 1.7 68.9 0 1-1.27-.57l-9.19-10.55a.56.56 0 0 1 .42-.93h3.57a.59.58 0 0 0 .59-.58v-60.71a.82.81 90 0 0-.81-.82h-5.4q-.56 0-.56-.56v-9.89q0-.55-.5-.78c-6.17-2.83-5.2-8.96-.02-12.21q50.3-31.53 75.55-47.18c5.09-3.15 8.43-2.3 13.51.87q36.66 22.94 74.91 47.01c4.69 2.95 5.08 8.69-.11 11.34q-.44.23-.44.73V203q0 .45-.46.45h-5.55a.79.79 0 0 0-.79.79v60.72a.73.73 0 0 0 .73.73h2.59a.46.46 0 0 1 .35.76l-9.3 10.86a.93.9 19.4 0 1-.7.32h-49.56a.97.96 0 0 1-.97-.96v-10.41q0-.64.65-.64h14.05a.39.39 0 0 0 .39-.39v-61.17q0-.6-.6-.6h-64.57q-.53 0-.53.54m32.35-12.8q70.21.03 75.6 0 .9 0 .14-.48-28.15-17.84-74.21-46.53-.67-.41-1.51-.42-.83 0-1.5.42-46.09 28.65-74.25 46.46-.76.48.13.49 5.4.03 75.6.06m-44.88 12.7a.44.44 0 0 0-.44-.44h-16.1a.44.44 0 0 0-.44.44v61.3a.44.44 0 0 0 .44.44h16.1a.44.44 0 0 0 .44-.44zm107.7.09a.51.51 0 0 0-.51-.51h-15.98a.51.51 0 0 0-.51.51v61.16a.51.51 0 0 0 .51.51h15.98a.51.51 0 0 0 .51-.51z"></path><path xmlns="http://www.w3.org/2000/svg" d="M260.64 154.25q1.14 0 4.12-.03.84 0 .84.84v8.15q0 .54.54.54l7.93-.04q.44-.01.55.66.01.06.01 4.3t-.01 4.3q-.11.67-.55.65l-7.93-.04q-.54 0-.54.54l-.01 8.15q0 .84-.84.84-2.97-.03-4.11-.03t-4.12.03q-.84 0-.84-.84v-8.15q0-.54-.54-.54l-7.93.04q-.44.01-.55-.66-.01-.06-.01-4.3t.01-4.3q.11-.67.55-.66l7.93.05q.54 0 .54-.54l.01-8.15q0-.84.84-.84 2.97.03 4.11.03M245.59 374.08a.49.48 87.1 0 0 .51.47c2.34-.13 6.41-.52 8.38.67 4.01 2.41 4.14 8.01.06 10.31q-1.4.8-5.22.78-3.84-.01-47.82.02-4.75 0-6.6-3.21-1.03-1.78-1.01-6.42.04-12.38-.01-28.73a.97.97 0 0 1 .33-.73l10.09-8.8q2.66-2.32 1-5.56-.14-.27-.19-.33-3.05-3.57-6.1-.91l-11.29 9.84q-.69.6-1.44.07l-40.54-28.78a3.97 3.93 6.9 0 1-1.35-1.7l-22.77-54.89a1.72 1.7 41.7 0 1-.07-1.12q8.26-28.65 16.44-57.31c.56-1.99-1.04-4.69-.84-6.69.6-5.96 7.97-7.63 11.32-2.54 3.04 4.61 2.48 8.97.85 14.71q-6.13 21.62-7.84 28-1.03 3.87 3.18 5.41.06.02.17.03 3.9.25 4.88-3.13 1.72-5.95 7.1-25.18 2.5-8.95 2.27-13.28-.36-6.85-4.53-13.18-.26-.39-.28-.87-.03-1.29.97-2.69 4.89-6.85 12.63-2.41 1.56.89.65 2.45-4.75 8.05-.1 16.3c.86 1.53 2.1 2.68 3.44 4.03a.66.63-60.6 0 1 .16.63q-2.64 9.39-8 28.15c-1.47 5.16-.16 7.08 4.02 9.93q2.72 1.87 8.13 5.72c1.63 1.16 2.26 3.67 2.24 6.01q-.04 4.3.02 11.58a.25.25 0 0 1-.33.23q-.29-.09-.39-.16-.17-.1-.24-.2c-6.34-9.49-12.89-16.99-24.17-19.03-8.88-1.6-18.35 1.15-22.01 9.7-.86 2.01-.84 3.78-.1 6.05q5.83 17.93 9.26 25.64 7.4 16.65 21.25 29.11 4 3.6 6.82 5.1 3.28 1.75 5.98-.8.42-.38.45-.46 1.63-3.81-1.25-5.69-4.57-2.97-9.58-8.03-13.92-14.07-18.66-31.76-.13-.51.16-.94 3.03-4.45 4.06-8.83c1.15-4.95-6.22-6.33-9.59-5.96a.54.54 0 0 1-.52-.82c2.48-4.06 8.05-4.78 12.6-3.75q7.71 1.76 12.59 8.24 1.61 2.13 13.33 17.26 2.71 3.49 5.96 6.5 2.81 2.6 7.19 4.49 5.77 2.49 11.22 3.86 7.15 1.81 11.25 3.81c15.64 7.66 26.62 22.12 30.44 38.94q1.3 5.74 1.31 17.59.02 19.62.13 23.26M275.79 374.06q.1-3.63.1-23.22-.01-11.83 1.28-17.56c3.8-16.8 14.74-31.25 30.34-38.92q4.1-2 11.23-3.81 5.44-1.38 11.2-3.87 4.37-1.89 7.17-4.49 3.24-3.01 5.94-6.5 11.68-15.12 13.29-17.25 4.86-6.47 12.56-8.24c4.54-1.04 10.1-.32 12.58 3.73a.54.54 0 0 1-.52.82c-3.36-.37-10.72 1.02-9.56 5.96q1.03 4.37 4.06 8.81.29.43.16.94-4.71 17.66-18.59 31.73-4.99 5.06-9.55 8.03-2.87 1.88-1.24 5.68.03.08.45.46 2.7 2.54 5.97.79 2.81-1.5 6.8-5.1 13.81-12.46 21.18-29.09 3.41-7.7 9.21-25.61c.74-2.27.75-4.03-.11-6.04-3.66-8.53-13.12-11.26-21.98-9.66-11.26 2.06-17.79 9.55-24.11 19.03q-.07.1-.24.2-.1.07-.39.16a.25.24-10.1 0 1-.33-.23q.05-7.26.01-11.56c-.02-2.33.6-4.84 2.23-6q5.39-3.85 8.11-5.72c4.17-2.85 5.47-4.77 4-9.92q-5.38-18.72-8.03-28.09a.66.63 60.5 0 1 .16-.63c1.34-1.35 2.58-2.5 3.43-4.03q4.63-8.24-.12-16.27-.91-1.56.65-2.45 7.72-4.44 12.61 2.39 1 1.4.97 2.69-.02.48-.28.87-4.15 6.32-4.5 13.16-.23 4.32 2.28 13.25 5.4 19.2 7.12 25.13.98 3.38 4.88 3.12.11-.01.17-.03 4.2-1.54 3.16-5.4-1.71-6.37-7.86-27.95c-1.63-5.73-2.2-10.08.83-14.68 3.34-5.09 10.7-3.43 11.31 2.52.2 1.99-1.4 4.69-.83 6.68q8.2 28.6 16.48 57.19a1.71 1.69-41.8 0 1-.07 1.12l-22.66 54.83a3.97 3.92-6.9 0 1-1.35 1.7l-40.43 28.78q-.75.53-1.44-.07l-11.28-9.81q-3.05-2.65-6.09.92-.05.06-.19.33-1.65 3.24 1 5.55l10.09 8.77a.97.97 0 0 1 .33.73q-.03 16.32.03 28.68.02 4.63-1 6.41-1.85 3.21-6.59 3.21-43.91.03-47.74.05-3.81.02-5.21-.78c-4.08-2.29-3.96-7.88.05-10.29 1.96-1.19 6.02-.81 8.36-.68a.49.48-87.2 0 0 .51-.47M261.01 220.91q3.27 0 6.09-.04a.39.39 0 0 1 .4.39q.01 6.69-.01 12.3 0 .02.13.16.14.13.16.13 5.61-.02 12.3-.01a.39.39 0 0 1 .39.4q-.04 2.83-.04 6.1t.04 6.09a.39.39 0 0 1-.39.4q-6.69.01-12.3-.01-.02 0-.16.14-.13.13-.13.16.02 5.6.01 12.29a.39.39 0 0 1-.4.39q-2.83-.04-6.1-.04t-6.09.04a.39.39 0 0 1-.4-.39q-.01-6.69.01-12.29 0-.03-.14-.17-.13-.13-.16-.13-5.6.02-12.29.01a.39.39 0 0 1-.39-.4q.04-2.82.04-6.1 0-3.27-.04-6.09a.39.39 0 0 1 .39-.4q6.69-.01 12.29.01.03 0 .16-.13.14-.14.14-.17-.02-5.6-.01-12.29a.39.39 0 0 1 .4-.39q2.82.04 6.1.04"></path><rect xmlns="http://www.w3.org/2000/svg" width="39.86" height="4.72" x="240.78" y="278.69" rx="2.32"></rect><rect xmlns="http://www.w3.org/2000/svg" width="47.48" height="4.56" x="237.28" y="287.03" rx="2.24"></rect><rect xmlns="http://www.w3.org/2000/svg" width="53.22" height="4.56" x="234.42" y="295.32" rx="2.25"></rect></g><g id="SvgjsG1008" featurekey="4AZ1rv-0" transform="matrix(2.9090171518602532,0,0,2.9090171518602532,92.21827922842189,-7.650512609918756)" fill="#01478c"><path d="M10.44 6 l2.76 0 l0 14 l-2.76 0 l0 -5.88 l-6.4 0 l0 5.88 l-2.74 0 l0 -14 l2.74 0 l0 5.64 l6.4 0 l0 -5.64 z M20.6 20.28 c-3.12 0 -5.42 -2.32 -5.42 -5.34 c0 -3.04 2.3 -5.34 5.42 -5.34 s5.4 2.3 5.4 5.34 c0 3.02 -2.28 5.34 -5.4 5.34 z M20.6 17.88 c1.68 0 2.84 -1.26 2.84 -2.94 s-1.16 -2.94 -2.84 -2.94 c-1.7 0 -2.84 1.26 -2.84 2.94 s1.14 2.94 2.84 2.94 z M31.980000000000004 20.28 c-2.5 0 -4.42 -1.48 -4.92 -3.12 l2.38 -0.7 c0.34 0.96 1.3 1.68 2.64 1.68 c1.02 0 1.68 -0.48 1.68 -1.04 c0 -0.5 -0.38 -0.78 -1.12 -1 l-2.58 -0.76 c-1.44 -0.42 -2.5 -1.26 -2.5 -2.7 c0 -1.7 1.84 -3.04 4.06 -3.04 c2.18 0 3.84 1.04 4.48 2.56 l-2.34 0.68 c-0.36 -0.64 -1.1 -1.18 -2.16 -1.18 c-0.82 0 -1.44 0.44 -1.44 0.92 c0 0.4 0.28 0.64 0.84 0.8 l2.52 0.72 c1.52 0.44 2.84 1.06 2.84 2.88 c0 1.9 -1.8 3.3 -4.38 3.3 z M44.300000000000004 9.6 c2.8 0 4.98 2.26 4.98 5.34 c0 3.06 -2.18 5.34 -4.98 5.34 c-1.44 0 -2.54 -0.6 -3.28 -1.52 l0 5.44 l-2.64 0 l0 -14.32 l2.64 0 l0 1.22 c0.74 -0.92 1.84 -1.5 3.28 -1.5 z M43.84 17.92 c1.66 0 2.84 -1.24 2.84 -3 c0 -1.74 -1.18 -2.96 -2.84 -2.96 c-1.6 0 -2.88 1.22 -2.88 2.96 c0 1.76 1.28 3 2.88 3 z M52.620000000000005 8.46 c-0.88 0 -1.58 -0.68 -1.58 -1.56 c0 -0.84 0.7 -1.52 1.58 -1.52 s1.58 0.68 1.58 1.52 c0 0.88 -0.7 1.56 -1.58 1.56 z M51.260000000000005 20 l0 -10.12 l2.66 0 l0 10.12 l-2.66 0 z M59.300000000000004 17.48 l6.98 0 l0 2.52 l-9.72 0 l0 -14 l2.74 0 l0 11.48 z M69.38000000000001 8.46 c-0.88 0 -1.58 -0.68 -1.58 -1.56 c0 -0.84 0.7 -1.52 1.58 -1.52 s1.58 0.68 1.58 1.52 c0 0.88 -0.7 1.56 -1.58 1.56 z M68.02000000000001 20 l0 -10.12 l2.66 0 l0 10.12 l-2.66 0 z M79.22000000000001 9.6 c2.64 0 3.98 1.78 3.98 4.48 l0 5.92 l-2.64 0 l0 -5.42 c0 -1.54 -0.7 -2.52 -2.16 -2.52 c-1.48 0 -2.44 1.16 -2.44 2.94 l0 5 l-2.64 0 l0 -10.12 l2.64 0 l0 1.28 c0.7 -0.9 1.8 -1.56 3.26 -1.56 z M92.46000000000001 20 l-2.94 -3.9 l-1.18 1.32 l0 2.58 l-2.64 0 l0 -14.6 l2.64 0 l0 8.66 l3.64 -4.18 l3.08 0 l-3.88 4.36 l4.28 5.76 l-3 0 z"></path></g></svg>